<svg width="20" height="20" viewBox="0 0 20 20" fill="none" xmlns="http://www.w3.org/2000/svg">
<g id="ic_plugins_gray">
<g id="Group 4">
<path id="Vector" d="M17.9535 5.05402C17.8876 4.96454 17.7974 4.89582 17.6936 4.856L10.2676 2.0465C10.1973 2.01583 10.1215 2 10.0448 2C9.96815 2 9.89231 2.01583 9.82204 2.0465L2.39605 4.9055C2.29794 4.93149 2.20834 4.98269 2.13614 5.05402C2.04969 5.15861 2.00165 5.28964 2 5.42532V14.485C2.00161 14.6086 2.04019 14.7289 2.11078 14.8304C2.18137 14.9319 2.28073 15.0099 2.39605 15.0544L9.82204 17.9134H10.2676L17.6936 15.0544C17.8089 15.0099 17.9083 14.9319 17.9789 14.8304C18.0495 14.7289 18.088 14.6086 18.0896 14.485V5.47483C18.1001 5.32226 18.0513 5.17154 17.9535 5.05402Z" stroke="#777777" stroke-width="1.5" stroke-linecap="round" stroke-linejoin="round"/>
<path id="Vector_2" d="M10.0449 18V8.1482M10.0449 8.1482L2.13623 5.10355M10.0449 8.1482L17.9536 5.10355" stroke="#777777" stroke-width="1.5" stroke-linecap="round" stroke-linejoin="round"/>
</g>
</g>
</svg>
