<svg width="21" height="14" viewBox="0 0 21 14" fill="none" xmlns="http://www.w3.org/2000/svg">
<rect width="21" height="13.5" fill="#F6F6F6"/>
<path fill-rule="evenodd" clip-rule="evenodd" d="M12.5834 8.20834C12.6658 8.20832 12.7464 8.18387 12.8149 8.13809C12.8834 8.0923 12.9368 8.02723 12.9683 7.9511C12.9998 7.87497 13.0081 7.79121 12.992 7.71039C12.9759 7.62957 12.9363 7.55534 12.878 7.49706L10.7946 5.41366C10.7165 5.33554 10.6105 5.29166 10.5 5.29166C10.3895 5.29166 10.2835 5.33554 10.2054 5.41366L8.122 7.49706C8.06374 7.55534 8.02407 7.62957 8.008 7.71039C7.99193 7.79121 8.00018 7.87497 8.03171 7.9511C8.06324 8.02723 8.11664 8.0923 8.18514 8.13809C8.25365 8.18387 8.33419 8.20832 8.41659 8.20834H12.5834Z" fill="#303030"/>
</svg>
