<svg width="15" height="20" viewBox="0 0 15 20" fill="none" xmlns="http://www.w3.org/2000/svg">
<path d="M14.575 7.09075V7.09068C14.5746 6.6234 14.3886 6.1754 14.058 5.84518L9.65479 1.44085L9.65477 1.44082C9.32436 1.11063 8.87638 0.9251 8.40927 0.925H8.40925H3.25C2.63337 0.925 2.042 1.16995 1.60598 1.60598C1.16995 2.042 0.925 2.63337 0.925 3.25V16.75C0.925 17.3666 1.16995 17.958 1.60598 18.394C2.042 18.83 2.63337 19.075 3.25 19.075H12.25C12.8666 19.075 13.458 18.83 13.894 18.394C14.33 17.958 14.575 17.3666 14.575 16.75V7.09075ZM3.69122 9.31622C3.36069 9.64676 3.175 10.0951 3.175 10.5625V15.0625C3.175 15.5299 3.36069 15.9782 3.69122 16.3088C4.02176 16.6393 4.47006 16.825 4.9375 16.825H10.5625C11.0299 16.825 11.4782 16.6393 11.8088 16.3088C12.1393 15.9782 12.325 15.5299 12.325 15.0625V10.5625C12.325 10.0951 12.1393 9.64676 11.8088 9.31622C11.4782 8.98569 11.0299 8.8 10.5625 8.8H4.9375C4.47006 8.8 4.02176 8.98569 3.69122 9.31622ZM4.45 13.45H5.425V15.55H4.9375C4.80821 15.55 4.68421 15.4986 4.59279 15.4072C4.50136 15.3158 4.45 15.1918 4.45 15.0625V13.45ZM11.05 10.5625V12.175H6.7V10.075H10.5625C10.6918 10.075 10.8158 10.1264 10.9072 10.2178C10.9986 10.3092 11.05 10.4332 11.05 10.5625ZM10.5625 15.55H6.7V13.45H11.05V15.0625C11.05 15.1918 10.9986 15.3158 10.9072 15.4072C10.8158 15.4986 10.6918 15.55 10.5625 15.55ZM4.59279 10.2178C4.68421 10.1264 4.80821 10.075 4.9375 10.075H5.425V12.175H4.45V10.5625C4.45 10.4332 4.50136 10.3092 4.59279 10.2178ZM2.2 3.25C2.2 2.97152 2.31062 2.70445 2.50754 2.50754C2.70445 2.31062 2.97152 2.2 3.25 2.2H7.675V6.0625C7.675 6.52994 7.86069 6.97824 8.19122 7.30878C8.52176 7.63931 8.97006 7.825 9.4375 7.825H13.3V16.75C13.3 17.0285 13.1894 17.2956 12.9925 17.4925C12.7955 17.6894 12.5285 17.8 12.25 17.8H3.25C2.97152 17.8 2.70445 17.6894 2.50754 17.4925C2.31062 17.2956 2.2 17.0285 2.2 16.75V3.25ZM12.9611 6.55H9.4375C9.30821 6.55 9.18421 6.49864 9.09278 6.40721C9.00136 6.31579 8.95 6.19179 8.95 6.0625V2.53894L12.9611 6.55Z" fill="#0066CC" stroke="#0066CC" stroke-width="0.15"/>
</svg>
